<svg id="katman_1" data-name="katman 1" xmlns="http://www.w3.org/2000/svg" viewBox="0 0 48.8 14.28"><defs><style>.cls-1{fill:#fff;stroke:#fff;stroke-miterlimit:10;stroke-width:0.2px;}</style></defs><title>Başlıksız-5</title><path class="cls-1" d="M9.57,11.3a4,4,0,0,1,1,3v3.44a0.3,0.3,0,0,1-.34.34H10.13a0.3,0.3,0,0,1-.34-0.34V14.3A3.39,3.39,0,0,0,9,11.83,3.22,3.22,0,0,0,6.7,11.1a11.54,11.54,0,0,0-1.9.18v6.47a0.3,0.3,0,0,1-.34.34H4.39A0.3,0.3,0,0,1,4,17.74V7.48a0.3,0.3,0,0,1,.34-0.34H4.46a0.3,0.3,0,0,1,.34.34v3.06a12.87,12.87,0,0,1,1.89-.16A4,4,0,0,1,9.57,11.3Z" transform="translate(-3.95 -7.04)"/><path class="cls-1" d="M13.22,17.2a4.22,4.22,0,0,1-.9-2.89,4.24,4.24,0,0,1,.9-2.89,3.16,3.16,0,0,1,2.52-1,3.16,3.16,0,0,1,2.53,1,4.28,4.28,0,0,1,.89,2.89,4.24,4.24,0,0,1-.89,2.89,3.16,3.16,0,0,1-2.53,1A3.17,3.17,0,0,1,13.22,17.2Zm2.52,0.31a2.41,2.41,0,0,0,2-.82,3.65,3.65,0,0,0,.68-2.38c0-2.1-.92-3.21-2.66-3.21a2.43,2.43,0,0,0-2,.82,3.64,3.64,0,0,0-.69,2.39,3.6,3.6,0,0,0,.69,2.38A2.41,2.41,0,0,0,15.74,17.51Z" transform="translate(-3.95 -7.04)"/><path class="cls-1" d="M25,10.89a0.3,0.3,0,0,1-.34.34h-3v4.31a1.66,1.66,0,0,0,1.79,2,3.72,3.72,0,0,0,.77-0.08l0.42-.08c0.22,0,.31.07,0.31,0.25v0.11a0.3,0.3,0,0,1-.25.33c-2.07.6-3.79,0-3.79-2.48V9a0.3,0.3,0,0,1,.34-0.34h0.08a0.3,0.3,0,0,1,.34.34v1.5h3a0.3,0.3,0,0,1,.34.34v0Z" transform="translate(-3.95 -7.04)"/><path class="cls-1" d="M25.43,14.32A0.3,0.3,0,0,1,25.09,14v0a0.3,0.3,0,0,1,.34-0.34h4.32a0.3,0.3,0,0,1,.34.34v0a0.3,0.3,0,0,1-.34.34H25.43Z" transform="translate(-3.95 -7.04)"/><path class="cls-1" d="M37.44,11.3a4,4,0,0,1,1,3,4,4,0,0,1-1,3,4,4,0,0,1-2.88.92,12.52,12.52,0,0,1-1.89-.16v2.81a0.3,0.3,0,0,1-.34.34H32.25a0.3,0.3,0,0,1-.34-0.34V12.5a2,2,0,0,1,.53-1.56,3,3,0,0,1,2.12-.56A4,4,0,0,1,37.44,11.3Zm-0.53,5.46a3.38,3.38,0,0,0,.74-2.46,3.39,3.39,0,0,0-.74-2.46,3.16,3.16,0,0,0-2.31-.75,2.08,2.08,0,0,0-1.61.44,1.51,1.51,0,0,0-.32,1.1v4.7a11.59,11.59,0,0,0,1.93.18A3.16,3.16,0,0,0,36.91,16.76Z" transform="translate(-3.95 -7.04)"/><path class="cls-1" d="M46,14.08a2.47,2.47,0,0,1-1.4.47l-3.87.4a2.61,2.61,0,0,0,2.79,2.55,6.06,6.06,0,0,0,1.87-.32c0.24-.08.4,0,0.4,0.21v0.06a0.37,0.37,0,0,1-.28.39,6.55,6.55,0,0,1-2.07.37,3.31,3.31,0,0,1-2.56-1A4.08,4.08,0,0,1,40,14.3a4.27,4.27,0,0,1,.89-2.9,3.18,3.18,0,0,1,2.53-1,3.23,3.23,0,0,1,2.22.72,2.42,2.42,0,0,1,.81,1.9A1.41,1.41,0,0,1,46,14.08Zm-1.53-.21c0.89-.09,1.18-0.35,1.18-0.93a1.68,1.68,0,0,0-.6-1.34,2.58,2.58,0,0,0-1.69-.5c-1.71,0-2.66,1.08-2.67,3.17Z" transform="translate(-3.95 -7.04)"/><path class="cls-1" d="M52.64,10.89a0.3,0.3,0,0,1-.34.34h-3v4.31a1.66,1.66,0,0,0,1.79,2,3.72,3.72,0,0,0,.77-0.08l0.42-.08c0.22,0,.31.07,0.31,0.25v0.11a0.3,0.3,0,0,1-.25.33c-2.07.6-3.79,0-3.79-2.48V9a0.3,0.3,0,0,1,.34-0.34H49a0.3,0.3,0,0,1,.34.34v1.5h3a0.3,0.3,0,0,1,.34.34v0Z" transform="translate(-3.95 -7.04)"/></svg>