<svg id="Capa_1" enable-background="new 0 0 490.441 490.441" height="512" viewBox="0 0 490.441 490.441" width="512" xmlns="http://www.w3.org/2000/svg"><path d="m487.437 166.59-79.033-98.071c-2.576-3.196-6.46-5.055-10.565-5.055h-19.766-79.696-205.775c-4.105 0-7.99 1.858-10.565 5.055l-79.033 98.071c-4.018 4.985-4.004 12.101.034 17.071l224.442 276.257v-.001l3.814-44.026 46.643 25.582.011-.002 73.652-90.655 66.234-81.524 69.57-85.631c4.037-4.97 4.051-12.085.033-17.071z" fill="#e5caf3"/><path d="m227.481 459.917 21.393-14.088 29.064-4.355.003.007.001-.001-209.462-257.819c-4.037-4.97-4.052-12.085-.034-17.071l79.033-98.071c2.576-3.196 6.46-5.055 10.565-5.055h-65.442c-4.105 0-7.99 1.858-10.565 5.055l-79.033 98.071c-4.018 4.985-4.004 12.101.034 17.071z" fill="#cb97e7"/><g><g><g id="XMLID_119_"><g><path d="m82.041 68.518 62.61 106.62h-142.54l-2.11.04c-.02-3.04.98-6.08 3-8.59z" fill="#9857bd"/><path d="m68.446 166.59 41.179-51.098-27.584-46.975-22.871 28.377-56.166 69.696c-1.716 2.129-2.69 4.646-2.935 7.219-.006.066-.018.132-.024.198-.017.205-.017.411-.024.616-.006.178-.02.357-.019.535 0 .006.001.012.001.019l2.109-.04h63.332c-.009-3.025.992-6.052 3.002-8.547z" fill="#814aa0"/><path d="m487.441 166.588c2.01 2.5 3.01 5.53 3 8.55h-.11-143.54l61.15-104.13 1.49-1.21h.01z" fill="#9857bd"/><path d="m346.791 175.137-82.28 282.86-8.76 10.79c-5.43 6.69-15.63 6.69-21.06 0l-7.21-8.87-39.47-135.73-34.94-120.13-8.42-28.92z" fill="#cb97e7"/><path d="m264.511 457.997 7.079-24.337-80.591-99.196 36.481 125.452 7.21 8.87c1.625 2.001 3.68 3.391 5.903 4.195 2.984 1.078 6.27 1.078 9.255 0 2.223-.804 4.278-2.193 5.903-4.195z" fill="#bd80e1"/><path d="m409.431 69.798-1.49 1.21-61.15 104.13-68.86-111.67h20.45 79.69 19.77c4.1 0 7.99 1.86 10.56 5.05z" fill="#af66da"/><path d="m490.331 175.137h.11c-.01 3.03-1.02 6.04-3.04 8.52l-69.57 85.63-66.23 81.53-87.09 107.18 82.28-282.86z" fill="#bd80e1"/><path d="m271.59 433.66-7.079 24.337 13.426-16.524z" fill="#af66da"/><path d="m277.931 63.468 68.86 111.669h-202.14l68.86-111.669z" fill="#d9b1ee"/><path d="m213.511 63.468-68.86 111.67-62.61-106.62c2.57-3.19 6.46-5.05 10.56-5.05z" fill="#bd80e1"/></g></g></g></g><path d="m157.995 63.468h-65.394c-4.1 0-7.99 1.86-10.56 5.05l27.585 46.974 37.854-46.972c2.565-3.184 6.428-5.037 10.515-5.052z" fill="#9857bd"/><g fill="#fee97d"><path d="m383.648 352.571c-3.263-16.127-12.825-30.286-26.566-39.337-1.42-.935-1.42-3.017 0-3.952 13.741-9.051 23.303-23.21 26.566-39.337.353-1.745 2.848-1.745 3.201 0 3.263 16.127 12.825 30.286 26.566 39.337 1.42.935 1.42 3.017 0 3.952-13.741 9.051-23.303 23.21-26.566 39.337-.354 1.745-2.848 1.745-3.201 0z"/><path d="m172.747 296.37c-2.738-13.534-10.763-25.417-22.295-33.013-1.191-.785-1.191-2.532 0-3.317 11.532-7.596 19.556-19.478 22.295-33.013.296-1.465 2.39-1.465 2.686 0 2.738 13.534 10.763 25.417 22.295 33.013 1.191.785 1.191 2.532 0 3.317-11.532 7.596-19.556 19.478-22.295 33.013-.296 1.465-2.39 1.465-2.686 0z"/><path d="m337.252 67.723c-1.986-9.816-7.806-18.433-16.169-23.942-.864-.569-.864-1.836 0-2.406 8.363-5.509 14.183-14.127 16.169-23.942.215-1.062 1.733-1.062 1.948 0 1.986 9.816 7.806 18.433 16.169 23.942.864.569.864 1.836 0 2.406-8.363 5.509-14.183 14.127-16.169 23.942-.215 1.062-1.734 1.062-1.948 0z"/></g></svg>