<svg xmlns="http://www.w3.org/2000/svg" viewBox="0 0 152.47 177.14"><defs><style>.cls-1{isolation:isolate;}.cls-2{fill:#9bcfd8;}.cls-3{fill:#83bbc6;}.cls-4{fill:#79abb5;}.cls-5{mix-blend-mode:soft-light;}.cls-6{fill:#fff;}</style></defs><title>premium member</title><g class="cls-1"><g id="katman_1" data-name="katman 1"><polygon class="cls-2" points="74.82 175.13 44.64 47.77 107.51 48.39 74.82 175.13"/><path d="M124.49,213.36a2,2,0,0,1-2.86-1.33L91.45,84.66a2,2,0,0,1,2-2.47l62.88,0.62a2,2,0,0,1,1.93,2.51l-32.7,126.74A2,2,0,0,1,124.49,213.36ZM96,86.23l27.72,117,30-116.39Z" transform="translate(-48.77 -36.43)"/><polygon class="cls-3" points="74.82 175.13 107.51 48.39 150.46 32.61 74.82 175.13"/><path d="M124.49,213.36a2,2,0,0,1-2.85-2.3l32.7-126.74a2,2,0,0,1,1.25-1.39l42.94-15.78A2,2,0,0,1,201,70L125.36,212.5A2,2,0,0,1,124.49,213.36ZM158,86.34L129.78,195.6,195,72.74Z" transform="translate(-48.77 -36.43)"/><polygon class="cls-4" points="74.82 175.13 44.64 47.77 2.01 31.14 74.82 175.13"/><path d="M124.49,213.35l-0.22.09a2,2,0,0,1-2.48-1L49,68.48a2,2,0,0,1,2.53-2.78L94.13,82.32a2,2,0,0,1,1.22,1.41L125.54,211.1A2,2,0,0,1,124.49,213.35Zm-69.55-142,62.76,124.13-26-109.8Z" transform="translate(-48.77 -36.43)"/><polygon class="cls-3" points="44.64 47.77 2.01 31.14 13.23 17.17 48.84 27.21 44.64 47.77"/><path d="M94.31,86a2,2,0,0,1-1.64.08L50,69.44a2,2,0,0,1-.84-3.13l11.22-14a2,2,0,0,1,2.11-.68l35.61,10A2,2,0,0,1,99.58,64L95.37,84.6a2,2,0,0,1-1,1.36ZM54.06,66.69L91.91,81.46l3.35-16.39L62.73,55.9Z" transform="translate(-48.77 -36.43)"/><polygon class="cls-2" points="103.71 27.76 139.51 18.42 103.96 2.65 39.41 2.01 13.23 17.17 48.84 27.21 103.71 27.76"/><path d="M189.18,56.65a2,2,0,0,1-.4.15L153,66.13a2,2,0,0,1-.53.07l-54.87-.54a2,2,0,0,1-.53-0.08l-35.61-10A2,2,0,0,1,61,51.86L87.17,36.7a2.16,2.16,0,0,1,1-.27l64.54,0.64a2,2,0,0,1,.8.17L189.1,53A2,2,0,0,1,189.18,56.65Zm-37,5.52,30-7.81L152.29,41.09l-63.58-.63L67.12,53,97.9,61.63Z" transform="translate(-48.77 -36.43)"/><polygon class="cls-2" points="107.51 48.39 150.46 32.61 139.51 18.42 103.71 27.76 107.51 48.39"/><path d="M200.13,70.83l-0.21.09L157,86.71a2,2,0,0,1-2.67-1.52l-3.8-20.63A2,2,0,0,1,152,62.24l35.8-9.33a2,2,0,0,1,2.1.72l10.94,14.18A2,2,0,0,1,200.13,70.83Zm-42.3,11.28,38.13-14-8.45-11L154.8,65.66Z" transform="translate(-48.77 -36.43)"/><polygon class="cls-2" points="107.51 48.39 44.64 47.77 48.84 27.21 103.71 27.76 107.51 48.39"/><path d="M157.19,86.61a2,2,0,0,1-.92.22l-62.88-.62a2,2,0,0,1-1.95-2.41l4.21-20.55a2,2,0,0,1,2-1.61l54.87,0.54a2,2,0,0,1,2,1.65l3.8,20.63A2,2,0,0,1,157.19,86.61Zm-61.32-4.4,58,0.57-3.06-16.6-51.55-.51Z" transform="translate(-48.77 -36.43)"/><g class="cls-5"><path class="cls-6" d="M149.56,43.48C141,41,131.4,42.1,122.54,42c-10.34-.12-21-0.77-31,2.12a1.22,1.22,0,0,0,0,2.33c8.81,2.72,18,2.57,27.17,2.7,10,0.14,21.14,1.63,30.84-.92A2.48,2.48,0,0,0,149.56,43.48Z" transform="translate(-48.77 -36.43)"/></g><g class="cls-5"><path class="cls-6" d="M184.38,59.3c-4.06,1.31-8,2.93-12,4.36s-8.39,2-12.35,3.73a0.71,0.71,0,0,0,.15,1.29c7.53,2.94,18.47-1.7,25.55-4.45C188.68,63.07,187.57,58.27,184.38,59.3Z" transform="translate(-48.77 -36.43)"/></g><g class="cls-5"><path class="cls-6" d="M148,65.73a193.58,193.58,0,0,0-21.48,0c-7.34.36-15.31,0.06-22.25,2.7a1,1,0,0,0,0,1.89c6.18,1.84,12.66,1.07,19,.93,8.22-.18,16.42-0.21,24.64.06C151.62,71.45,151.63,65.95,148,65.73Z" transform="translate(-48.77 -36.43)"/></g><g class="cls-5"><path class="cls-6" d="M90.95,65.77c-4.52-1.29-9-2.67-13.54-3.92s-9-3.2-13.57-3.54c-1.06-.08-1.17,1.25-0.5,1.78,7,5.49,18,7.49,26.36,10.06C92.51,71,93.77,66.58,90.95,65.77Z" transform="translate(-48.77 -36.43)"/></g><g class="cls-5"><path class="cls-6" d="M143.27,88.81c-12.1-.41-24.22.62-36.31,1a1,1,0,0,0-.29,2c10.71,3.51,22.08,2.62,33.23,2.91-1.53,13.13-5.25,25.88-7.6,38.87a206.84,206.84,0,0,0-3,39.79,0.83,0.83,0,0,0,1.61.23c4-13.49,3.89-28.49,6.31-42.35,2.34-13.38,7.88-25.79,9-39.4A3,3,0,0,0,143.27,88.81Z" transform="translate(-48.77 -36.43)"/></g><g class="cls-5"><path class="cls-6" d="M180.35,83.61a62.85,62.85,0,0,0-19.4,6.3,0.92,0.92,0,0,0,.44,1.7c5.52,0,10.68-2,16-3.13-3.73,8.38-9.4,15.75-13,24.23C160.06,123.09,152.73,135,152,146.36a1.08,1.08,0,0,0,1.82.78c7-7.72,10.32-20.13,14.36-29.66,4.5-10.64,11.26-20.11,14.81-31.17A2.2,2.2,0,0,0,180.35,83.61Z" transform="translate(-48.77 -36.43)"/></g><g class="cls-5"><path class="cls-6" d="M94.17,116.94c-2.51-7.23-4.63-14.57-7.07-21.81-3-9-10.2-15-19.91-13.6-1.18.17-1.07,2,0,2.24,5.53,1.48,10,2.28,13.35,7.46,2.5,3.9,3.35,9.21,4.52,13.62,1.8,6.75,4.77,13.25,7.18,19.8,2,5.47,3.19,11.17,5.75,16.41a0.82,0.82,0,0,0,1.53-.4C100.36,132.51,96.81,124.52,94.17,116.94Z" transform="translate(-48.77 -36.43)"/></g></g></g></svg>