<svg id="katman_1" data-name="katman 1" xmlns="http://www.w3.org/2000/svg" viewBox="0 0 100.61 82.95"><defs><style>.cls-1,.cls-2,.cls-3{fill:none;stroke:#ff5562;stroke-miterlimit:10;}.cls-1,.cls-2{stroke-linecap:round;}.cls-1{stroke-width:3px;}.cls-2,.cls-3{stroke-width:2.88px;}</style></defs><title>cat face</title><path class="cls-1" d="M104.24,81c3-7.28,2.57-19,2.57-19l-0.12-16.94,0.06-14c-4.43.28-8.84,3.94-11.87,6.86s-7.5,9.92-7.5,9.92a39.88,39.88,0,0,0-18-4,43.42,43.42,0,0,0-16.94,3.78A100.72,100.72,0,0,0,43.34,36.3c-4.7-4.89-12.84-5.39-12.84-5.39V59.44s-0.26,7.92.07,10a38.32,38.32,0,0,0,4.82,12.1" transform="translate(-20.56 -29.31)"/><path class="cls-2" d="M44.36,91.81s11.09,12.31,25,12.72S96.17,91.81,96.17,91.81" transform="translate(-20.56 -29.31)"/><path class="cls-3" d="M70.07,87.34l-6.15-9.09a0.71,0.71,0,0,1,.59-1.1H76.8a0.71,0.71,0,0,1,.59,1.1l-6.15,9.09A0.71,0.71,0,0,1,70.07,87.34Z" transform="translate(-20.56 -29.31)"/><path class="cls-2" d="M84.42,83.78s18,4.47,21,27" transform="translate(-20.56 -29.31)"/><path class="cls-2" d="M56.71,83.78s-18,4.47-21,27" transform="translate(-20.56 -29.31)"/><path class="cls-2" d="M22,95.43S32.23,75.86,53.35,80.19" transform="translate(-20.56 -29.31)"/><path class="cls-2" d="M119.73,95.43S109.5,75.86,88.38,80.19" transform="translate(-20.56 -29.31)"/><path class="cls-2" d="M56.1,87.1a6.63,6.63,0,0,0-.26,2.47c0.07,0.35.58,4.39,5.74,4.86a9.34,9.34,0,0,0,9-5.63s2.75,5.63,8.32,5.65a5.28,5.28,0,0,0,5.69-5.13,4.9,4.9,0,0,0-.42-2.21" transform="translate(-20.56 -29.31)"/><path class="cls-3" d="M65.81,93.75s2.27,3.47,4.82,3.64,5-3.68,5-3.68" transform="translate(-20.56 -29.31)"/></svg>