<svg id="katman_1" data-name="katman 1" xmlns="http://www.w3.org/2000/svg" viewBox="0 0 74.53 91"><defs><style>.cls-1,.cls-2{fill:none;stroke:#ff5562;stroke-miterlimit:10;stroke-width:2.8px;}.cls-2{stroke-linecap:round;}</style></defs><title>dog face</title><path class="cls-1" d="M35,54.72c0-5.39.16-11.92,1-15.57s2-8.08,4.1-10.21,4.58-3.3,8.54,0S60.93,46.22,63.4,52.17a39.26,39.26,0,0,1,7.38-.68,37.75,37.75,0,0,1,7.39.71c2.36-6.56,11.89-20,11.89-20,4.52-6.2,8.3-5.32,8.3-5.32,5.2,1.57,6.91,10.52,6.91,10.52,1.71,9.69,1.45,14.7,1.45,14.7-0.1,8-.36,8.27-0.36,8.27-0.58,2.49-7.62,12.31-7.62,12.31-1.68,2.68-1.15,4.06-1.15,4.06A20.93,20.93,0,0,1,99,86.3c-1.42,8-2.82,7.92-3,8.28s1,4-.21,7.26-4.75,7.5-6.13,8.68c-3.88,3.28-6,3.39-6.62,3.22a5.68,5.68,0,0,1-2.29-1.68,17.54,17.54,0,0,1-9.9,3,17,17,0,0,1-10-3c-1.61,2.36-3.47,1.68-3.47,1.68-3.82-1.15-7.92-5.85-9.13-7.24a11.94,11.94,0,0,1-2.76-7.6c-0.11-1.79.38-3.56-.45-4.78C44,92.52,42.69,88,42.58,84.51A23.92,23.92,0,0,1,44,77.08c0.86-2.79-.73-3.68-1.62-5.06s-5.55-8-6.45-9.95C35.18,60.43,35,54.72,35,54.72Z" transform="translate(-33.6 -25.44)"/><path class="cls-1" d="M60.84,112a107.87,107.87,0,0,1,2.56-11.35c1.46-4.78,1.55-5,2.46-6.72a8.89,8.89,0,0,1,2.67-3.32,5.06,5.06,0,0,1,2.24-.7,3.36,3.36,0,0,1,2.11.54,11.3,11.3,0,0,1,2.93,3.61,31,31,0,0,1,1.77,4.57c0.43,1.34.73,2.37,3.19,13.4" transform="translate(-33.6 -25.44)"/><line class="cls-2" x1="37.22" y1="60.42" x2="37.17" y2="64.34"/><path class="cls-2" d="M77.7,52.11a42,42,0,0,1,8.22,3.35" transform="translate(-33.6 -25.44)"/><path class="cls-2" d="M55.55,55.47A34.21,34.21,0,0,1,64,52.06" transform="translate(-33.6 -25.44)"/><path class="cls-2" d="M96,94.57a9,9,0,0,1-1.2-2.67A17.08,17.08,0,0,0,91.6,85.8c-2.1-2.62-2.71-3.52-4.1-4.68A33.38,33.38,0,0,0,83.39,78a23.43,23.43,0,0,0-5.33-2.65,32.63,32.63,0,0,0-7.29-1.16l0-9.37" transform="translate(-33.6 -25.44)"/><path class="cls-2" d="M70.77,74.14a44.25,44.25,0,0,0-6.94,1.3A20.23,20.23,0,0,0,57,78.72a30.72,30.72,0,0,0-3.66,3.14,47.5,47.5,0,0,0-3.27,3.92,36,36,0,0,0-4.44,9.3" transform="translate(-33.6 -25.44)"/><path class="cls-2" d="M73.34,83.22s0.14,1.79,1.52,2.07a2.43,2.43,0,0,0,2.36-.72,3,3,0,0,0,0-3.54A6.21,6.21,0,0,0,73.7,78.5,12.71,12.71,0,0,0,70.87,78a7.7,7.7,0,0,0-4.17.81,5.84,5.84,0,0,0-2.11,1.84A4.4,4.4,0,0,0,63.9,83a2.33,2.33,0,0,0,1,2,3.21,3.21,0,0,0,1.64.35,2,2,0,0,0,1.68-1.88" transform="translate(-33.6 -25.44)"/></svg>