<svg xmlns="http://www.w3.org/2000/svg" viewBox="0 0 185.24 172.44"><defs><style>.cls-1{isolation:isolate;}.cls-2{fill:#f29100;}.cls-3{mix-blend-mode:multiply;}.cls-4{fill:#e7c4c5;}.cls-5{fill:#fff;}.cls-6{mix-blend-mode:soft-light;}</style></defs><title>platinium member</title><g class="cls-1"><g id="katman_1" data-name="katman 1"><polygon class="cls-2" points="152.07 170.11 32.74 169.94 32.77 150.66 12 25.8 64.91 98.43 89.22 12 122.34 97.31 173.24 26.03 152.26 149.91 152.07 170.11"/><path d="M62.79,211l0-21.42L40.47,55.25,96.34,132l24.9-88.53,34.09,87.79,54.27-76L187,188.9l-0.21,22.32ZM48.29,73.9L67.48,189.44l0,17,114.69,0.16,0.21-18.25L201.64,74.4l-47.52,66.55L121.95,58.12,98.23,142.46Z" transform="translate(-32.38 -38.78)"/><g class="cls-3"><polygon class="cls-4" points="152.07 170.11 32.74 169.94 32.77 150.66 12 25.8 44.89 141.74 116.63 150.78 47.69 156.66 152.07 170.11"/></g><circle class="cls-2" cx="121.59" cy="50.78" r="9.67" transform="translate(38.25 133.52) rotate(-89.92)"/><path d="M115,60.82a12,12,0,1,1,6.57,2A12,12,0,0,1,115,60.82Zm10.61-16.19a7.35,7.35,0,1,0,3.32,6.16A7.31,7.31,0,0,0,125.62,44.64Z" transform="translate(-32.38 -38.78)"/><circle class="cls-2" cx="205.62" cy="64.81" r="9.67" transform="translate(108.14 231.56) rotate(-89.92)"/><path d="M199,74.85a12,12,0,1,1,6.57,2A12,12,0,0,1,199,74.85Zm10.61-16.18A7.35,7.35,0,1,0,213,64.82,7.3,7.3,0,0,0,209.64,58.67Z" transform="translate(-32.38 -38.78)"/><circle class="cls-2" cx="44.38" cy="64.58" r="9.67" transform="translate(-52.64 70.09) rotate(-89.92)"/><path d="M37.8,74.62a12,12,0,1,1,6.56,2A12,12,0,0,1,37.8,74.62ZM48.4,58.43a7.35,7.35,0,1,0,3.32,6.16A7.3,7.3,0,0,0,48.4,58.43Z" transform="translate(-32.38 -38.78)"/><path d="M38.77,69.78a5.58,5.58,0,0,1-2.63-5.86,2.33,2.33,0,1,1,4.6.7c-0.08.53-.26,1.75,4.41,2.5a2.33,2.33,0,0,1-.74,4.6A14.4,14.4,0,0,1,38.77,69.78Z" transform="translate(-32.38 -38.78)"/><path d="M117,57.34a7,7,0,0,1-1.07-.87,7.87,7.87,0,0,1-2.12-6.53,2.33,2.33,0,0,1,4.64.45,3.38,3.38,0,0,0,.75,2.76,3.63,3.63,0,0,0,3,.76,2.33,2.33,0,1,1,.53,4.63A8.54,8.54,0,0,1,117,57.34Z" transform="translate(-32.38 -38.78)"/><path d="M200.82,70.42a6.73,6.73,0,0,1-2.95-6.83,2.33,2.33,0,1,1,4.62.6,2.35,2.35,0,0,0,.52,2,3.68,3.68,0,0,0,3,.8,2.33,2.33,0,0,1,.47,4.63A8.65,8.65,0,0,1,200.82,70.42Z" transform="translate(-32.38 -38.78)"/><path class="cls-5" d="M44.17,59.23c-1.5.11-2,2.47-.38,2.79a8.39,8.39,0,0,1,2.67.8c1,0.55,1,1.21,1.12,2.24,0.32,2.13,3.43,1.44,3.56-.48C51.37,61.15,47.11,59,44.17,59.23Z" transform="translate(-32.38 -38.78)"/><path class="cls-5" d="M127.8,47.47a5.92,5.92,0,0,0-3.18-2.63,4.26,4.26,0,0,0-2.48-.19,3,3,0,0,0-1.21.67,2.69,2.69,0,0,1-.48.58,1.1,1.1,0,0,0,.2,2,2.73,2.73,0,0,0,1.79,1.26,1.37,1.37,0,0,1,1.21.76C125,52.66,129.28,50.21,127.8,47.47Z" transform="translate(-32.38 -38.78)"/><path class="cls-5" d="M204.64,60.18a0.8,0.8,0,0,0,.28,1.09c0.42,0.3.83,0.58,1.29,0.84a10.1,10.1,0,0,1,1.38.56c1,0.77.83,2,1.35,3a1.77,1.77,0,0,0,3,0C213.65,61.81,207.47,55.91,204.64,60.18Z" transform="translate(-32.38 -38.78)"/><polygon points="32.77 148.33 114.21 150.77 32.77 152.99 32.77 148.33"/><polygon points="63.12 99.92 21.65 46.57 66.69 96.94 63.12 99.92"/><path d="M162.39,135.49a78.6,78.6,0,0,1,3.64-7.67c1.17-2.25,2.62-4.81,4.26-7.5s3.43-5.52,5.33-8.29,3.87-5.48,5.79-8,3.77-4.78,5.44-6.69a78.84,78.84,0,0,1,5.84-6.17,78.81,78.81,0,0,1-3.63,7.68c-1.17,2.25-2.62,4.81-4.26,7.5s-3.44,5.52-5.33,8.29-3.88,5.48-5.8,8-3.77,4.78-5.44,6.69A79.35,79.35,0,0,1,162.39,135.49Z" transform="translate(-32.38 -38.78)"/><polygon points="91.39 20.89 107.47 72.59 87.01 22.46 91.39 20.89"/><g class="cls-6"><polygon class="cls-5" points="49.74 133.68 28.07 62.3 66.7 107.1 86.89 40.62 123.13 112.02 165.54 56.86 148.07 147.53 148.85 164.06 83.52 158.32 131.54 150.8 49.74 133.68"/></g></g></g></svg>